<svg width="50" height="50" xmlns="http://www.w3.org/2000/svg">

 <g>
  <title>background</title>
  <rect fill="none" id="canvas_background" height="402" width="582" y="-1" x="-1"/>
 </g>
 <g>
  <title>Layer 1</title>
  <path id="svg_3" d="m29.067616,32.354924c-0.026,-0.287 -0.045,-0.748 -0.06,-1.226c4.345,-0.445 7.393,-1.487 7.393,-2.701c-0.012,-0.002 -0.011,-0.05 -0.011,-0.07c-3.248,-2.927 2.816,-23.728 -8.473,-23.306c-0.709,-0.6 -1.95,-1.133 -3.73,-1.133c-15.291,1.157 -8.53,20.8 -12.014,24.508c-0.002,0.001 -0.005,0.001 -0.007,0.001c0,0.002 0.001,0.004 0.001,0.006c0,0.001 -0.001,0.002 -0.001,0.002s0.001,0 0.002,0.001c0.014,1.189 2.959,2.212 7.178,2.668c-0.012,0.29 -0.037,0.649 -0.092,1.25c-1.282,3.447 -7.958,3.663 -11.659,7.092c2.023,1.766 9.072,6.508 16.634,6.508s13.842,-3.589 16.346,-6.608c-3.709,-3.332 -10.238,-3.579 -11.507,-6.992z"/>
 </g>
</svg>